<svg xmlns="http://www.w3.org/2000/svg" viewBox="0 0 1344 48" width="1344" height="48">
  <g stroke="#000000">
    <path d="M24.242 44.844s-10.43.273-10.25-15.521c.238-3.454.759-4.538.772-4.48 1.31 5.875 4.299 2.294 4.671 1.866 1.234-1.418 1.348-1.76 2.164-3.405 2.129-6.547 2.171-6.379.634-10.728" fill="#8b0000"/>
    <path d="M24.242 44.844s11.197-1.51 8.926-14.79c-3.72-13.546-3.467-13.921-10.868-17.478" fill="#8b0000"/>
    <path d="M24.472 44.857s-1.322.103-1.392-.952c-.04-.865.98.43.921-1.263.842-.107 1.131.223.994.983.492-.129.498-.138.741-.404.284.978.037 1.498-1.264 1.636z" fill="#ffa500"/>
  </g>
  <g stroke="#000000">
    <path d="M72.245 44.844s-10.538.27-10.317-15.651c.231-3.446.813-4.482.827-4.425 1.303 5.799 4.246 2.246 4.615 1.814 1.222-1.423 1.337-1.784 2.15-3.43 2.123-6.536 2.245-6.398.793-10.692" fill="#8b0000"/>
    <path d="M72.245 44.844s11.283-1.534 8.997-14.843c-3.728-13.577-3.555-13.83-10.862-17.541" fill="#8b0000"/>
    <path d="M72.496 44.847s-4.025.471-4.239-4.355c-.121-3.957 2.984 1.966 2.806-5.778 2.562-.489 3.443 1.019 3.027 4.498 1.497-.592 1.515-.634 2.255-1.848.864 4.473.114 6.852-3.849 7.483z" fill="#ffa500"/>
  </g>
  <g stroke="#000000">
    <path d="M120.255 44.844s-10.862.261-10.518-16.041c.207-3.422.976-4.312.991-4.259 1.282 5.569 4.087 2.102 4.447 1.657 1.186-1.439 1.305-1.855 2.107-3.507 2.105-6.5 2.467-6.454 1.273-10.583" fill="#8b0000"/>
    <path d="M120.255 44.844s11.54-1.607 9.209-15.003c-3.75-13.668-3.821-13.554-10.846-17.73" fill="#8b0000"/>
    <path d="M120.497 44.847s-4.09.476-4.307-4.402c-.124-4 3.032 1.987 2.851-5.841 2.602-.494 3.498 1.03 3.075 4.547 1.521-.598 1.539-.641 2.292-1.868.878 4.522.115 6.926-3.911 7.564z" fill="#ffa500"/>
  </g>
  <g stroke="#000000">
    <path d="M168.272 44.844s-11.402.246-10.853-16.691c.168-3.382 1.246-4.031 1.265-3.982 1.245 5.187 3.822 1.862 4.165 1.394 1.126-1.464 1.252-1.974 2.036-3.633 2.077-6.442 2.839-6.549 2.072-10.403" fill="#8b0000"/>
    <path d="M168.272 44.844s11.967-1.728 9.563-15.27c-3.789-13.82-4.264-13.095-10.819-18.045" fill="#8b0000"/>
    <path d="M168.498 44.847s-4.201.485-4.424-4.483c-.127-4.073 3.114 2.024 2.928-5.947 2.673-.503 3.593 1.049 3.159 4.63 1.562-.61 1.581-.653 2.354-1.903.901 4.605.118 7.053-4.017 7.703z" fill="#ffa500"/>
  </g>
  <g stroke="#000000">
    <path d="M216.295 44.844s-12.157.225-11.322-17.601c.114-3.327 1.625-3.636 1.649-3.595 1.195 4.652 3.45 1.526 3.771 1.028 1.042-1.5 1.178-2.141 1.936-3.811 2.037-6.36 3.359-6.681 3.19-10.15M216.295 44.844s12.567-1.898 10.058-15.643c-3.842-14.033-4.882-12.452-10.78-18.486" fill="#8b0000"/>
    <path d="M216.499 44.846s-4.357.498-4.588-4.596c-.132-4.177 3.23 2.075 3.037-6.099 2.773-.516 3.727 1.076 3.276 4.748 1.621-.625 1.64-.669 2.442-1.951.935 4.722.123 7.232-4.167 7.898z" fill="#ffa500"/>
  </g>
  <g stroke="#000000">
    <path d="M264.325 44.844s-13.129.199-11.925-18.772c.045-3.254 2.111-3.127 2.142-3.097 1.13 3.964 2.973 1.095 3.265.557.934-1.546 1.082-2.354 1.808-4.039 1.985-6.255 4.026-6.85 4.628-9.824M264.325 44.844s13.337-2.116 10.695-16.122c-3.912-14.308-5.679-11.627-10.731-19.053" fill="#8b0000"/>
    <path d="M264.501 44.846s-4.56.514-4.802-4.744c-.138-4.311 3.38 2.142 3.179-6.294 2.901-.532 3.9 1.11 3.428 4.9 1.696-.645 1.716-.691 2.555-2.013.979 4.873.129 7.463-4.36 8.151z" fill="#ffa500"/>
  </g>
  <g stroke="#000000">
    <path d="M312.362 44.844s-14.317.166-12.663-20.202c-.04-3.167 2.707-2.507 2.745-2.489 1.051 3.124 2.39.568 2.647-.019.802-1.602.964-2.616 1.652-4.318 1.92-6.126 4.842-7.058 6.384-9.427M312.362 44.844s14.278-2.383 11.472-16.709c-3.995-14.642-6.651-10.617-10.67-19.746" fill="#8b0000"/>
    <path d="M312.503 44.846s-4.808.533-5.063-4.925c-.145-4.475 3.564 2.223 3.352-6.534 3.059-.553 4.112 1.152 3.615 5.086 1.788-.669 1.81-.717 2.694-2.089 1.032 5.058.135 7.748-4.598 8.462z" fill="#ffa500"/>
  </g>
  <g stroke="#000000">
    <path d="M360.405 44.844s-15.72.127-13.534-21.892c-.14-3.063 3.41-1.774 3.457-1.77.958 2.13 1.701-.056 1.916-.7.647-1.669.826-2.925 1.467-4.648 1.845-5.974 5.807-7.303 8.461-8.957M360.405 44.844s15.391-2.698 12.392-17.402c-4.095-15.037-7.801-9.424-10.598-20.565" fill="#8b0000"/>
    <path d="M360.506 44.845s-5.103.556-5.374-5.139c-.154-4.67 3.782 2.32 3.557-6.818 3.248-.577 4.365 1.203 3.837 5.308 1.898-.699 1.92-.749 2.86-2.181 1.095 5.279.143 8.085-4.88 8.83z" fill="#ffa500"/>
  </g>
  <g stroke="#000000">
    <path d="M408.455 44.844s-17.339.083-14.539-23.843c-.256-2.943 4.221-.928 4.279-.94.849.984.905-.775 1.072-1.486.467-1.745.667-3.281 1.254-5.028 1.758-5.798 6.92-7.585 10.857-8.414M408.455 44.844s16.674-3.062 13.453-18.201c-4.21-15.494-9.128-8.048-10.516-21.51" fill="#8b0000"/>
    <path d="M408.509 44.845s-5.443.582-5.732-5.387c-.164-4.895 4.034 2.432 3.794-7.147 3.464-.604 4.656 1.261 4.093 5.563 2.024-.732 2.048-.784 3.05-2.285 1.168 5.533.153 8.475-5.205 9.256z" fill="#ffa500"/>
  </g>
  <g stroke="#000000">
    <path d="M456.512 44.844s-19.175.032-15.679-26.053c-.387-2.808 5.141.031 5.211 0 .727-.316.003-1.591.116-2.376.263-1.832.486-3.685 1.012-5.46 1.66-5.599 8.181-7.905 13.573-7.799" fill="#8b0000"/>
    <path d="M456.512 44.844s18.129-3.474 14.655-19.107c-4.34-16.012-10.632-6.488-10.422-22.581" fill="#8b0000"/>
    <path d="M456.512 44.844s-5.829.613-6.138-5.668c-.176-5.15 4.32 2.559 4.063-7.519 3.71-.636 4.986 1.326 4.383 5.853 2.168-.771 2.194-.825 3.267-2.405 1.251 5.822.163 8.917-5.575 9.739z" fill="#ffa500"/>
  </g>
  <g stroke="#000000">
    <path d="M504.512 44.844s-18.817.068-15.679-25.386c-.304-2.992 4.699-.624 4.763-.643.869.562.734-1.085.897-1.844.444-1.832.661-3.529 1.268-5.343 1.837-5.916 7.641-7.942 12.172-8.472M504.512 44.844s18.018-3.305 14.544-19.107c-4.49-16.177-10.04-7.766-11.111-22.581" fill="#8b0000"/>
    <path d="M504.512 44.844s-5.744.613-6.053-5.668c-.04-4.95 4.229 2.537 3.978-7.264 3.71-.636 4.901 1.241 4.298 5.768 2.168-.771 2.194-.74 3.267-2.32 1.08 5.884.056 8.63-5.49 9.484z" fill="#ffa500"/>
  </g>
  <g stroke="#000000">
    <path d="M552.512 44.844s-18.459.103-15.679-24.72c-.22-3.175 4.257-1.278 4.315-1.286 1.011 1.441 1.464-.578 1.679-1.312.624-1.832.836-3.372 1.522-5.224 2.015-6.235 7.101-7.98 10.773-9.146M552.512 44.844s17.907-3.136 14.433-19.107c-4.64-16.343-9.448-9.043-11.801-22.581" fill="#8b0000"/>
    <path d="M552.512 44.844s-5.372.613-5.681-5.668c.553-4.073 3.831 2.442 3.606-6.147 3.71-.636 4.529.869 3.926 5.396 2.168-.771 2.194-.368 3.267-1.948.332 6.154-.409 7.371-5.118 8.367z" fill="#ffa500"/>
  </g>
  <g stroke="#000000">
    <path d="M600.512 44.844s-18.102.139-15.679-24.053c-.137-3.359 3.814-1.933 3.868-1.929 1.152 2.319 2.194-.073 2.459-.78.804-1.832 1.011-3.215 1.778-5.107 2.192-6.552 6.561-8.017 9.372-9.819M600.512 44.844s17.796-2.966 14.322-19.107c-4.791-16.508-8.856-10.321-12.49-22.581" fill="#8b0000"/>
    <path d="M600.512 44.844s-5.053.613-5.362-5.668c1.059-3.324 3.49 2.36 3.287-5.192 3.71-.636 4.21.55 3.607 5.077 2.168-.771 2.194-.049 3.267-1.629-.307 6.386-.807 6.295-4.799 7.412z" fill="#ffa500"/>
  </g>
  <g stroke="#000000">
    <path d="M648.512 44.844s-17.744.174-15.679-23.386c-.053-3.543 3.372-2.588 3.42-2.572 1.294 3.197 2.925.433 3.24-.249.985-1.832 1.187-3.058 2.033-4.988 2.37-6.87 6.021-8.055 7.972-10.493M648.512 44.844s17.685-2.797 14.211-19.107c-4.941-16.674-8.264-11.598-13.179-22.581" fill="#8b0000"/>
    <path d="M648.512 44.844s-4.908.613-5.217-5.668c1.291-2.982 3.335 2.323 3.142-4.757 3.71-.636 4.065.406 3.462 4.933 2.168-.771 2.194.095 3.267-1.485-.599 6.492-.989 5.804-4.654 6.977z" fill="#ffa500"/>
  </g>
  <g stroke="#000000">
    <path d="M696.512 44.844s-17.386.21-15.679-22.72c.03-3.727 2.93-3.243 2.972-3.215 1.437 4.077 3.655.94 4.022.284 1.165-1.832 1.361-2.902 2.288-4.871 2.547-7.188 5.481-8.091 6.572-11.166M696.512 44.844s17.573-2.628 14.099-19.107c-5.09-16.839-7.671-12.876-13.868-22.581" fill="#8b0000"/>
    <path d="M696.512 44.844s-4.846.613-5.155-5.668c1.391-2.834 3.269 2.307 3.08-4.569 3.71-.636 4.003.343 3.4 4.87 2.168-.771 2.194.158 3.267-1.422-.725 6.537-1.068 5.592-4.592 6.789z" fill="#ffa500"/>
  </g>
  <g stroke="#000000">
    <path d="M744.512 44.844s-17.028.245-15.679-22.053c.114-3.911 2.488-3.898 2.524-3.858 1.579 4.955 4.386 1.446 4.803.815 1.346-1.832 1.537-2.745 2.543-4.752 2.725-7.506 4.941-8.129 5.172-11.84M744.512 44.844s17.462-2.459 13.988-19.107c-5.24-17.005-7.079-14.153-14.557-22.581" fill="#8b0000"/>
    <path d="M744.512 44.844s-4.829.613-5.138-5.668c1.417-2.795 3.251 2.303 3.063-4.519 3.71-.636 3.986.326 3.383 4.853 2.168-.771 2.194.175 3.267-1.405-.758 6.549-1.088 5.536-4.575 6.739z" fill="#ffa500"/>
  </g>
  <g stroke="#000000">
    <path d="M792.512 44.844s-16.671.281-15.679-21.386c.197-4.095 2.045-4.553 2.077-4.501 1.72 5.833 5.116 1.951 5.583 1.347 1.526-1.832 1.712-2.588 2.799-4.635 2.902-7.823 4.401-8.166 3.771-12.513" fill="#8b0000"/>
    <path d="M792.512 44.844s17.351-2.289 13.877-19.107c-5.391-17.17-6.487-15.431-15.246-22.581" fill="#8b0000"/>
    <path d="M792.512 44.844s-4.914.613-5.223-5.668c1.281-2.995 3.342 2.325 3.148-4.774 3.71-.636 4.071.411 3.468 4.938 2.168-.771 2.194.09 3.267-1.49-.587 6.487-.981 5.823-4.66 6.994z" fill="#ffa500"/>
  </g>
  <g stroke="#000000">
    <path d="M840.512 44.844s-16.313.316-15.679-20.72c.281-4.278 1.603-5.207 1.629-5.144 1.862 6.712 5.846 2.458 6.365 1.879 1.706-1.832 1.887-2.431 3.053-4.516 3.08-8.142 3.861-8.204 2.372-13.187" fill="#8b0000"/>
    <path d="M840.512 44.844s17.24-2.12 13.766-19.107c-5.541-17.336-5.895-16.708-15.936-22.581" fill="#8b0000"/>
    <path d="M840.512 44.844s-5.286.613-5.595-5.668c.688-3.872 3.74 2.42 3.52-5.891 3.71-.636 4.443.783 3.84 5.31 2.168-.771 2.194-.282 3.267-1.862.161 6.217-.516 7.082-5.032 8.111z" fill="#ffa500"/>
  </g>
  <g stroke="#000000">
    <path d="M888.512 44.844s-15.955.352-15.679-20.053c.364-4.462 1.161-5.862 1.181-5.787 2.004 7.59 6.577 2.964 7.146 2.411 1.887-1.832 2.062-2.275 3.309-4.399 3.257-8.459 3.321-8.241.971-13.86" fill="#8b0000"/>
    <path d="M888.512 44.844s17.129-1.951 13.655-19.107c-5.691-17.501-5.303-17.986-16.625-22.581" fill="#8b0000"/>
    <path d="M888.512 44.844s-5.605.613-5.914-5.668c.182-4.621 4.081 2.502 3.839-6.846 3.71-.636 4.762 1.102 4.159 5.629 2.168-.771 2.194-.601 3.267-2.181.8 5.985-.118 8.158-5.351 9.066z" fill="#ffa500"/>
  </g>
  <g stroke="#000000">
    <path d="M936.512 44.844s-16.631.285-15.679-21.312c.206-4.115 1.996-4.625 2.027-4.573 1.736 5.931 5.197 2.008 5.67 1.407 1.547-1.832 1.732-2.571 2.827-4.622 2.922-7.859 4.341-8.171 3.616-12.588" fill="#8b0000"/>
    <path d="M936.512 44.844s17.339-2.271 13.865-19.107c-5.408-17.188-6.422-15.573-15.323-22.581" fill="#8b0000"/>
    <path d="M936.512 44.844s-5.75.613-6.059-5.668c-.05-4.963 4.236 2.539 3.984-7.281 3.71-.636 4.907 1.246 4.304 5.773 2.168-.771 2.194-.745 3.267-2.325 1.092 5.879.064 8.649-5.496 9.501z" fill="#ffa500"/>
  </g>
  <g stroke="#000000">
    <path d="M984.512 44.844s-17.227.226-15.679-22.423c.067-3.809 2.733-3.534 2.773-3.501 1.5 4.466 3.98 1.164 4.369.52 1.245-1.832 1.439-2.832 2.401-4.818 2.626-7.33 5.241-8.109 5.95-11.466M984.512 44.844s17.524-2.553 14.05-19.107c-5.157-16.913-7.408-13.444-14.174-22.581" fill="#8b0000"/>
    <path d="M984.512 44.844s-5.812.613-6.121-5.668c-.15-5.111 4.302 2.555 4.046-7.469 3.71-.636 4.969 1.309 4.366 5.836 2.168-.771 2.194-.808 3.267-2.388 1.218 5.834.143 8.861-5.558 9.689z" fill="#ffa500"/>
  </g>
  <g stroke="#000000">
    <path d="M1032.512 44.844s-17.744.174-15.679-23.386c-.053-3.543 3.372-2.588 3.42-2.572 1.294 3.197 2.925.433 3.24-.249.985-1.832 1.187-3.058 2.033-4.988 2.37-6.87 6.021-8.055 7.972-10.493M1032.512 44.844s17.685-2.797 14.211-19.107c-4.941-16.674-8.264-11.598-13.179-22.581" fill="#8b0000"/>
    <path d="M1032.512 44.844s-5.829.613-6.138-5.668c-.176-5.15 4.32 2.559 4.063-7.519 3.71-.636 4.986 1.326 4.383 5.853 2.168-.771 2.194-.825 3.267-2.405 1.251 5.822.163 8.917-5.575 9.739z" fill="#ffa500"/>
  </g>
  <g stroke="#000000">
    <path d="M1080.512 44.844s-18.181.131-15.679-24.201c-.155-3.319 3.913-1.788 3.967-1.786 1.121 2.124 2.032-.185 2.286-.899.764-1.832.972-3.25 1.721-5.132 2.153-6.482 6.681-8.009 9.683-9.67M1080.512 44.844s17.82-3.004 14.346-19.107c-4.757-16.472-8.987-10.037-12.336-22.581" fill="#8b0000"/>
    <path d="M1080.512 44.844s-5.829.613-6.138-5.668c-.176-5.15 4.32 2.559 4.063-7.519 3.71-.636 4.986 1.326 4.383 5.853 2.168-.771 2.194-.825 3.267-2.405 1.251 5.822.163 8.917-5.575 9.739z" fill="#ffa500"/>
  </g>
  <g stroke="#000000">
    <path d="M1128.512 44.844s-18.539.095-15.679-24.868c-.239-3.135 4.355-1.133 4.415-1.143.979 1.246 1.302-.691 1.505-1.43.583-1.832.797-3.407 1.465-5.251 1.976-6.164 7.221-7.971 11.084-8.996M1128.512 44.844s17.931-3.173 14.457-19.107c-4.606-16.306-9.579-8.759-11.647-22.581" fill="#8b0000"/>
    <path d="M1128.512 44.844s-5.829.613-6.138-5.668c-.176-5.15 4.32 2.559 4.063-7.519 3.71-.636 4.986 1.326 4.383 5.853 2.168-.771 2.194-.825 3.267-2.405 1.251 5.822.163 8.917-5.575 9.739z" fill="#ffa500"/>
  </g>
  <g stroke="#000000">
    <path d="M1176.512 44.844s-18.817.068-15.679-25.386c-.304-2.992 4.699-.624 4.763-.643.869.562.734-1.085.897-1.844.444-1.832.661-3.529 1.268-5.343 1.837-5.916 7.641-7.942 12.172-8.472M1176.512 44.844s18.018-3.305 14.544-19.107c-4.49-16.177-10.04-7.766-11.111-22.581" fill="#8b0000"/>
    <path d="M1176.512 44.844s-5.829.613-6.138-5.668c-.176-5.15 4.32 2.559 4.063-7.519 3.71-.636 4.986 1.326 4.383 5.853 2.168-.771 2.194-.825 3.267-2.405 1.251 5.822.163 8.917-5.575 9.739z" fill="#ffa500"/>
  </g>
  <g stroke="#000000">
    <path d="M1224.512 44.844s-19.016.048-15.679-25.757c-.35-2.889 4.944-.26 5.012-.285.79.074.328-1.367.463-2.14.343-1.832.564-3.615 1.126-5.408 1.738-5.74 7.941-7.921 12.95-8.098M1224.512 44.844s18.08-3.399 14.606-19.107c-4.407-16.086-10.369-7.056-10.729-22.581" fill="#8b0000"/>
    <path d="M1224.512 44.844s-5.829.613-6.138-5.668c-.176-5.15 4.32 2.559 4.063-7.519 3.71-.636 4.986 1.326 4.383 5.853 2.168-.771 2.194-.825 3.267-2.405 1.251 5.822.163 8.917-5.575 9.739z" fill="#ffa500"/>
  </g>
  <g stroke="#000000">
    <path d="M1272.512 44.844s-19.135.036-15.679-25.979c-.378-2.828 5.092-.042 5.161-.071.743-.219.084-1.535.203-2.317.283-1.832.505-3.668 1.04-5.447 1.68-5.634 8.121-7.909 13.418-7.874M1272.512 44.844s18.117-3.455 14.643-19.107c-4.357-16.03-10.567-6.63-10.499-22.581" fill="#8b0000"/>
    <path d="M1272.512 44.844s-5.829.613-6.138-5.668c-.176-5.15 4.32 2.559 4.063-7.519 3.71-.636 4.986 1.326 4.383 5.853 2.168-.771 2.194-.825 3.267-2.405 1.251 5.822.163 8.917-5.575 9.739z" fill="#ffa500"/>
  </g>
  <g stroke="#000000">
    <path d="M1320.512 44.844s-19.175.032-15.679-26.053c-.387-2.808 5.141.031 5.211 0 .727-.316.003-1.591.116-2.376.263-1.832.486-3.685 1.012-5.46 1.66-5.599 8.181-7.905 13.573-7.799" fill="#8b0000"/>
    <path d="M1320.512 44.844s18.129-3.474 14.655-19.107c-4.34-16.012-10.632-6.488-10.422-22.581" fill="#8b0000"/>
    <path d="M1320.512 44.844s-5.829.613-6.138-5.668c-.176-5.15 4.32 2.559 4.063-7.519 3.71-.636 4.986 1.326 4.383 5.853 2.168-.771 2.194-.825 3.267-2.405 1.251 5.822.163 8.917-5.575 9.739z" fill="#ffa500"/>
  </g>
</svg>