<svg xmlns="http://www.w3.org/2000/svg" viewBox="0 0 1584 48" width="1584" height="48">
  <path d="M24.929 40.055s-9.887-9.532-14.586-16.9c-6.545-10.266 3.12-24.933 14.586-8 3.792-7.918 22.465-10.672 13.284 11.031-6.083 10.883-13.284 13.869-13.284 13.869zM72.929 40.055s-9.887-9.532-14.586-16.9c-6.545-10.266 3.12-24.933 14.586-8 3.792-7.918 22.465-10.672 13.284 11.031-6.083 10.883-13.284 13.869-13.284 13.869zM120.939 40.4s-10.097-9.733-14.895-17.257c-6.683-10.484 3.186-25.461 14.895-8.17 3.872-8.085 22.94-10.897 13.565 11.265-6.212 11.113-13.565 14.162-13.565 14.162zM169.043 44.114S156.696 32.21 150.828 23.01c-8.173-12.82 3.896-31.135 18.215-9.99 4.735-9.888 28.052-13.327 16.587 13.775-7.596 13.59-16.587 17.319-16.587 17.319zM217.078 45.363s-13.104-12.634-19.331-22.398c-8.675-13.605 4.134-33.043 19.331-10.601 5.025-10.495 29.772-14.145 17.604 14.618-8.062 14.423-17.604 18.381-17.604 18.381zM265.083 45.575s-13.228-12.687-19.497-22.499c-8.945-13.974 4.174-33.508 19.454-10.943 5.053-10.552 30.131-14.122 17.896 14.8-8.106 14.502-17.853 18.642-17.853 18.642z" fill="#e02619"/>
  <path d="M313.124 47.155s-14.109-12.414-20.523-22.131c-12.698-18.958 4.461-38.308 19.741-15.743 5.053-10.552 33.434-12.407 21.199 16.515-8.106 14.502-20.417 21.359-20.417 21.359z" fill="#e02619"/>
  <path d="M361.169 48.866s-15.065-12.117-21.635-21.73c-16.765-24.36 4.773-43.509 20.053-20.944 5.053-10.552 37.011-10.551 24.777 18.371-8.106 14.502-23.195 24.303-23.195 24.303z" fill="#e02619"/>
  <path d="M409.185 49.48s-15.408-12.012-22.033-21.588c-18.223-26.295 4.884-45.372 20.164-22.807 5.053-10.552 38.294-9.885 26.06 19.037-8.106 14.502-24.191 25.358-24.191 25.358z" fill="#e02619"/>
  <path d="M457.189 49.647s-15.501-11.983-22.142-21.549c-18.619-26.822 4.915-45.88 20.195-23.315 5.053-10.552 38.643-9.703 26.409 19.219-8.106 14.502-24.462 25.645-24.462 25.645z" fill="#e02619"/>
  <path d="M505.177 49.174S489.94 37.11 483.342 27.516c-17.498-25.332 4.829-44.445 20.109-21.88 5.053-10.552 37.655-10.216 25.421 18.706-8.106 14.502-23.695 24.832-23.695 24.832z" fill="#e02619"/>
  <path d="M553.121 47.04s-14.045-12.434-20.448-22.157c-12.425-18.596 4.44-37.959 19.72-15.394 5.053-10.552 33.193-12.533 20.959 16.389-8.106 14.502-20.231 21.162-20.231 21.162z" fill="#e02619"/>
  <path d="M601.092 45.922s-13.421-12.627-19.722-22.419c-9.768-15.067 4.237-34.561 19.517-11.996 5.053-10.552 30.855-13.746 18.62 15.176-8.106 14.502-18.415 19.239-18.415 19.239zM649.083 45.542s-13.21-12.692-19.477-22.507c-8.866-13.87 4.168-33.408 19.448-10.843 5.053-10.552 30.063-14.157 17.828 14.765-8.106 14.502-17.799 18.585-17.799 18.585zM697.107 45.505s-13.283-12.671-19.548-22.566c-8.694-13.694 4.223-33.235 19.503-10.67C702.115 1.717 727.017-1.922 714.782 27c-8.106 14.502-17.675 18.505-17.675 18.505z" fill="#e02619"/>
  <path d="M745.971 46.279s-16.823-11.616-23.221-24.071c-7.739-14.168 6.4-33.568 21.68-11.003C749.483.653 775.017-1.922 762.782 27c-8.106 14.502-16.811 19.279-16.811 19.279z" fill="#e02619"/>
  <path d="M795.263 47.435s-22.115-10.039-28.712-26.321c-6.311-14.876 9.655-34.065 24.935-11.5C796.539-.938 823.017-1.922 810.782 27c-8.106 14.502-15.519 20.435-15.519 20.435z" fill="#e02619"/>
  <path d="M843.745 47.866s-24.089-9.45-30.76-27.159c-5.779-15.14 10.869-34.251 26.149-11.686C844.187-1.531 871.017-1.922 858.782 27c-8.106 14.502-15.037 20.866-15.037 20.866z" fill="#e02619"/>
  <path d="M891.889 47.995s-24.677-9.276-31.37-27.41c-5.621-15.219 11.23-34.306 26.51-11.741C892.082-1.708 919.017-1.922 906.782 27c-8.106 14.502-14.893 20.995-14.893 20.995z" fill="#e02619"/>
  <path d="M939.701 48.118s-24.043-9.462-30.733-26.999C902.422 5.065 919.76-14.019 935.04 8.546c5.053-10.552 32.469-10.683 20.234 18.239-8.106 14.502-15.573 21.333-15.573 21.333z" fill="#e02619"/>
  <path d="M986.396 48.914s-19.605-10.772-26.27-24.167c-12.822-21.653 7.739-40.723 23.019-18.158 5.053-10.552 35.679-10.173 23.445 18.749-8.106 14.502-20.194 23.576-20.194 23.576z" fill="#e02619"/>
  <path d="M1033.547 49.431s-16.719-11.623-23.367-22.324c-16.904-25.295 5.752-44.356 21.032-21.791 5.053-10.552 37.768-9.841 25.534 19.081-8.106 14.502-23.199 25.034-23.199 25.034z" fill="#e02619"/>
  <path d="M1081.251 49.611s-15.712-11.92-22.355-21.682c-18.327-26.564 5.06-45.622 20.34-23.057 5.053-10.552 38.496-9.725 26.262 19.197-8.106 14.502-24.247 25.542-24.247 25.542z" fill="#e02619"/>
  <path d="M1129.189 49.643s-15.499-11.983-22.14-21.549c-18.611-26.811 4.914-45.87 20.194-23.305 5.053-10.552 38.637-9.707 26.403 19.215-8.106 14.502-24.457 25.639-24.457 25.639z" fill="#e02619"/>
  <path d="M1177.165 48.713s-14.98-12.144-21.535-21.767c-16.4-23.874 4.744-43.042 20.024-20.477 5.053-10.552 36.691-10.717 24.457 18.205-8.106 14.502-22.946 24.039-22.946 24.039z" fill="#e02619"/>
  <path d="M1225.11 46.616s-13.809-12.506-20.173-22.256c-11.419-17.259 4.363-36.672 19.643-14.107 5.053-10.552 32.308-12.992 20.073 15.93-8.106 14.502-19.543 20.433-19.543 20.433z" fill="#e02619"/>
  <path d="M1273.088 45.77s-13.336-12.654-19.623-22.454c-9.407-14.588 4.209-34.099 19.489-11.534 5.053-10.552 30.537-13.911 18.303 15.011-8.106 14.502-18.169 18.977-18.169 18.977zM1321.082 45.503s-13.188-12.7-19.451-22.516c-8.773-13.746 4.161-33.289 19.441-10.724 5.053-10.552 29.979-14.2 17.744 14.722-8.106 14.502-17.734 18.518-17.734 18.518zM1369.074 45.249s-13.034-12.567-19.228-22.28c-8.63-13.533 4.112-32.868 19.228-10.545 4.999-10.439 29.615-14.071 17.512 14.541-8.019 14.347-17.512 18.284-17.512 18.284zM1417.007 42.854s-11.583-11.167-17.088-19.799c-7.668-12.027 3.655-29.21 17.088-9.372 4.443-9.277 26.319-12.504 15.563 12.923-7.127 12.749-15.563 16.248-15.563 16.248zM1464.953 40.903s-10.401-10.028-15.344-17.778c-6.886-10.8 3.282-26.229 15.344-8.416 3.989-8.329 23.632-11.227 13.974 11.604-6.399 11.449-13.974 14.59-13.974 14.59zM1512.934 40.219s-9.987-9.628-14.733-17.07c-6.61-10.369 3.152-25.183 14.733-8.08 3.83-7.997 22.69-10.779 13.417 11.142-6.144 10.992-13.417 14.008-13.417 14.008zM1560.929 40.055s-9.887-9.532-14.586-16.9c-6.545-10.266 3.12-24.933 14.586-8 3.792-7.918 22.465-10.672 13.284 11.031-6.083 10.883-13.284 13.869-13.284 13.869z" fill="#e02619"/>
</svg>