<svg xmlns="http://www.w3.org/2000/svg" viewBox="0 0 1344 48" width="1344" height="48">
  <path d="M24.929 40.055s-9.887-9.532-14.586-16.9c-6.545-10.266 3.12-24.933 14.586-8 3.792-7.918 22.465-10.672 13.284 11.031-6.083 10.883-13.284 13.869-13.284 13.869zM72.929 40.055s-9.887-9.532-14.586-16.9c-6.545-10.266 3.12-24.933 14.586-8 3.792-7.918 22.465-10.672 13.284 11.031-6.083 10.883-13.284 13.869-13.284 13.869zM120.944 40.586s-10.209-9.842-15.06-17.45c-6.758-10.6 3.221-25.744 15.06-8.26 3.915-8.176 23.195-11.019 13.716 11.39-6.281 11.236-13.716 14.32-13.716 14.32zM168.978 41.792s-10.94-10.547-16.139-18.699c-7.242-11.359 3.452-27.587 16.139-8.851 4.195-8.761 24.855-11.809 14.697 12.204-6.73 12.042-14.697 15.346-14.697 15.346zM217.011 42.998s-11.67-11.252-17.216-19.948c-7.726-12.117 3.682-29.429 17.216-9.443 4.476-9.346 26.516-12.597 15.679 13.02-7.18 12.846-15.679 16.371-15.679 16.371zM265.045 44.204s-12.401-11.956-18.294-21.197c-8.21-12.876 3.913-31.272 18.294-10.034 4.756-9.931 28.176-13.386 16.661 13.835-7.63 13.65-16.661 17.396-16.661 17.396zM313.079 45.41s-13.132-12.661-19.372-22.446c-8.694-13.635 4.143-33.115 19.372-10.625 5.036-10.517 29.836-14.176 17.642 14.65-8.079 14.454-17.642 18.421-17.642 18.421zM361.65 45.991s-14.325-11.317-20.673-22.82c-8.095-13.992 5.174-33.818 20.454-11.253 5.053-10.552 28.58-12.155 17.045 15.377-8.106 14.502-16.826 18.696-16.826 18.696zM410.255 46.533s-15.547-9.844-21.988-23.139c-7.426-14.323 6.256-34.448 21.537-11.883C414.856.959 436.94 1.555 426.15 27.61c-8.106 14.502-15.895 18.923-15.895 18.923zM458.86 47.074s-16.768-8.369-23.303-23.456c-6.757-14.655 7.338-35.079 22.619-12.514 5.052-10.552 25.694-7.757 15.648 16.82-8.106 14.502-14.964 19.15-14.964 19.15zM507.465 47.616s-17.99-6.895-24.618-23.775c-6.088-14.986 8.421-35.71 23.702-13.145 5.052-10.552 24.25-5.557 14.949 17.542-8.106 14.502-14.033 19.378-14.033 19.378zM555.706 47.831s-18.476-6.308-25.141-23.901c-5.822-15.118 8.851-35.961 24.132-13.396 5.052-10.552 23.676-4.681 14.672 17.829-8.106 14.502-13.663 19.468-13.663 19.468zM603.055 47.248s-17.162-7.895-23.726-23.558c-6.542-14.762 7.686-35.282 22.967-12.717 5.052-10.552 25.229-7.05 15.423 17.052-8.106 14.502-14.664 19.223-14.664 19.223zM650.403 46.665s-15.846-9.482-22.31-23.216c-7.262-14.404 6.521-34.603 21.802-12.038 5.052-10.552 26.783-9.417 16.175 16.276-8.106 14.502-15.667 18.978-15.667 18.978zM697.752 46.082s-14.531-11.068-20.895-22.873c-7.982-14.048 5.357-33.925 20.637-11.36C702.547 1.297 725.83.065 714.421 27.348c-8.106 14.502-16.669 18.734-16.669 18.734zM745.101 45.499s-13.216-12.655-19.48-22.531c-8.701-13.69 4.192-33.245 19.472-10.68 5.053-10.552 29.889-14.152 17.678 14.722-8.106 14.502-17.67 18.489-17.67 18.489zM793.081 45.482s-13.176-12.703-19.437-22.521c-8.723-13.68 4.157-33.225 19.437-10.66C798.134 1.749 823.017-1.922 810.782 27c-8.106 14.502-17.701 18.482-17.701 18.482zM841.081 45.482s-13.176-12.703-19.437-22.521c-8.723-13.68 4.157-33.225 19.437-10.66C846.134 1.749 871.017-1.922 858.782 27c-8.106 14.502-17.701 18.482-17.701 18.482zM889.081 45.482s-13.176-12.703-19.437-22.521c-8.723-13.68 4.157-33.225 19.437-10.66C894.134 1.749 919.017-1.922 906.782 27c-8.106 14.502-17.701 18.482-17.701 18.482zM937.685 46.022s-12.328-10.686-20.099-21.584C908.413 11.1 921-10.508 936.28 12.057c6.086-12.131 30.563-13.148 19.071 14.299-8.106 14.502-17.666 19.666-17.666 19.666zM986.327 46.597s-11.426-8.54-20.803-20.587c-9.652-12.975 2.624-36.778 17.904-14.213 7.186-13.811 31.229-12.004 20.529 13.874-8.106 14.502-17.63 20.926-17.63 20.926z" fill="#e02619"/>
  <path d="M1034.97 47.172s-10.525-6.395-21.508-19.591c-10.131-12.611 1.833-38.608 17.113-16.043 8.286-15.492 31.897-10.861 21.987 13.448-8.106 14.502-17.592 22.186-17.592 22.186z" fill="#e02619"/>
  <path d="M1083.612 47.747s-9.622-4.249-22.212-18.594c-10.61-12.248 1.043-40.44 16.323-17.875 9.385-17.172 32.564-9.717 23.445 13.023-8.106 14.502-17.556 23.446-17.556 23.446z" fill="#e02619"/>
  <path d="M1131.531 47.024s-9.307-4.069-21.548-18.001c-10.296-11.865.993-39.242 15.805-17.369 9.122-16.684 31.581-9.393 22.759 12.614-7.857 14.058-17.016 22.756-17.016 22.756zM1178.88 45.282s-9.452-5.435-19.807-17.726c-9.358-11.465 1.525-35.665 15.5-15.027 7.79-14.492 29.302-9.712 20.391 12.219-7.414 13.264-16.084 20.534-16.084 20.534zM1226.23 43.54s-9.597-6.801-18.067-17.451c-8.42-11.065 2.057-32.088 15.195-12.684 6.458-12.301 27.023-10.033 18.022 11.822-6.97 12.471-15.15 18.313-15.15 18.313zM1273.579 41.797s-9.742-8.166-16.326-17.175c-7.483-10.666 2.588-28.51 14.891-10.342 5.124-10.11 24.744-10.352 15.653 11.427-6.527 11.676-14.218 16.09-14.218 16.09zM1320.929 40.055s-9.887-9.532-14.586-16.9c-6.545-10.266 3.12-24.933 14.586-8 3.792-7.918 22.465-10.672 13.284 11.031-6.083 10.883-13.284 13.869-13.284 13.869z" fill="#e02619"/>
</svg>